<svg viewBox="0 0 1024 1024" xmlns="http://www.w3.org/2000/svg">
  <path d="M823.562412 870.328191H246.575035c-63.371669 0-114.894811-47.394109-114.894811-105.739131V114.535764c0-58.345021 51.523142-105.918654 114.894811-105.918653H761.267882c63.371669 0 114.894811 47.394109 114.894811 105.73913v445.576438c0 58.345021-51.523142 105.73913-114.894811 105.73913H246.575035c-27.287518 0-49.548387 20.465638-49.548387 45.598878v53.13885c0 25.13324 22.26087 45.598878 49.548387 45.598878h576.987377c57.626928 0 104.482468-43.085554 104.482469-96.224404V59.601683c0-16.516129 14.720898-30.159888 32.673212-30.159888s32.673212 13.464236 32.673211 30.159888v654.361851c0 86.171108-76.117812 156.364656-169.828892 156.364657zM246.575035 68.757363c-27.287518 0-49.548387 20.465638-49.548387 45.598878V615.764376c15.43899-6.821879 32.314165-10.412342 49.548387-10.232819H761.267882c27.287518 0 49.548387-20.465638 49.548387-45.598878V114.535764c0-25.13324-22.26087-45.598878-49.548387-45.598878H246.575035z m0 0" />
  <path d="M823.921459 767.820477H278.350631c-18.490884 0-33.391304-13.823282-33.391304-30.698457s14.900421-30.698457 33.391304-30.698458h545.570828c18.490884 0 33.391304 13.823282 33.391304 30.698458s-14.900421 30.698457-33.391304 30.698457z m0 0" />
</svg>
