<svg viewBox="0 0 1024 1024" xmlns="http://www.w3.org/2000/svg">
  <path d="M700.326 711.04H323.675c-19.863 0-35.965 16.101-35.965 35.964s16.102 35.965 35.965 35.965h376.65c19.863 0 35.965-16.102 35.965-35.965 0-19.863-16.102-35.965-35.965-35.965h0.001zM704 504c101.62 0 184-82.38 184-184s-82.38-184-184-184-184 82.38-184 184 82.38 184 184 184z m0 72c-141.385 0-256-114.615-256-256S562.615 64 704 64s256 114.615 256 256-114.615 256-256 256z" />
  <path d="M795.333 291.077h-60.83v-98.692c0-16.793-13.665-30.458-30.456-30.458-16.874 0-30.539 13.665-30.539 30.458v129.15c0 16.873 13.665 30.538 30.54 30.538h91.285c16.791 0 30.456-13.664 30.456-30.538 0-16.875-13.665-30.459-30.456-30.459z" />
  <path d="M320.5 620H429c19.882 0 36-16.118 36-36s-16.118-36-36-36H320.5c-19.882 0-36 16.118-36 36s16.118 36 36 36z" />
  <path d="M824 628.504v223.49C824 871.884 807.884 888 787.995 888h-551.99C216.117 888 200 871.884 200 851.995v-551.99C200 280.117 216.116 264 236.005 264h112.4c19.883 0 36-16.118 36-36s-16.117-36-36-36h-112.4C176.351 192 128 240.354 128 300.005v551.99C128 911.649 176.354 960 236.005 960h551.99C847.649 960 896 911.646 896 851.995V628.504c0-19.882-16.118-36-36-36s-36 16.118-36 36z" />
</svg>
