<svg viewBox="0 0 1024 1024" xmlns="http://www.w3.org/2000/svg">
  <path d="M601.6 938.666667H290.133333c-72.533333 0-128-55.466667-128-128v-217.6h-17.066666c-21.333333 0-42.666667-12.8-55.466667-34.133334-8.533333-21.333333-4.266667-46.933333 12.8-64L469.333333 102.4c21.333333-21.333333 64-21.333333 85.333334 0l366.933333 388.266667c17.066667 17.066667 21.333333 42.666667 12.8 64s-29.866667 34.133333-55.466667 34.133333h-21.333333V810.666667c0 34.133333-12.8 64-38.4 89.6-34.133333 34.133333-72.533333 38.4-89.6 38.4-17.066667 0-34.133333-12.8-34.133333-34.133334 0-17.066667 12.8-34.133333 34.133333-34.133333 4.266667 0 25.6 0 42.666667-17.066667 12.8-12.8 17.066667-25.6 17.066666-42.666666v-251.733334c0-17.066667 12.8-34.133333 34.133334-34.133333h38.4L512 153.6l-349.866667 375.466667h38.4c17.066667 0 34.133333 12.8 34.133334 34.133333V810.666667c0 34.133333 29.866667 64 64 64h307.2c17.066667 0 34.133333 12.8 34.133333 34.133333-8.533333 12.8-21.333333 29.866667-38.4 29.866667z" />
  <path d="M627.2 934.4H396.8c-17.066667 0-34.133333-12.8-34.133333-34.133333v-247.466667c0-42.666667 34.133333-81.066667 81.066666-81.066667h136.533334c42.666667 0 81.066667 34.133333 81.066666 81.066667v247.466667c0 21.333333-17.066667 34.133333-34.133333 34.133333z m-196.266667-64H597.333333v-217.6c0-8.533333-8.533333-12.8-12.8-12.8h-136.533333c-8.533333 0-12.8 8.533333-12.8 12.8v217.6z" />
</svg>
