<?xml version="1.0" encoding="UTF-8"?>
<svg viewBox="0 0 1212 1024" xmlns="http://www.w3.org/2000/svg">
  <path d="M73.973 0h724.197c40.854 0 73.973 33.119 73.973 73.973S839.024 147.946 798.17 147.946H73.973C33.119 147.946 0 114.827 0 73.973S33.119 0 73.973 0Z" fill="currentColor"/>
  <path d="M73.973 438.081h1064.408c40.854 0 73.973 33.119 73.973 73.973s-33.119 73.973-73.973 73.973H73.973C33.119 586.027 0 552.908 0 512.054s33.119-73.973 73.973-73.973Z" fill="currentColor"/>
  <path d="M73.973 876.163h724.197c40.854 0 73.973 33.119 73.973 73.973s-33.119 73.973-73.973 73.973H73.973C33.119 1024.109 0 990.99 0 950.136s33.119-73.973 73.973-73.973Z" fill="currentColor"/>
</svg>
